<?xml version="1.0" encoding="UTF-8"?>
<svg id="Layer_1" data-name="Layer 1" xmlns="http://www.w3.org/2000/svg" viewBox="0 0 595.28 841.89">
  <defs>
    <style>
      .cls-1 {
        fill: #231f20;
      }
    </style>
  </defs>
  <path d="M275.99,208.11c3.95,3.89,7.17,8,9.75,12.76,2.2,3.83,4.32,9.3,6.77,12.19,2.16,2.71,5.64,3.02,8.96,3.09,17.47.52,34.91,3.65,51.48,9.09,35.89,11.86,69.52,37.76,90.33,69.73,2.11,2.84,4.93,9.43,8.88,6.14,1.35-1.04,2.83-2.49,4.43-3.36,8.08-3.99,16.41,2.63,22.07,8.39,13.64,15.36,20.89,37.47,19.08,57.22-.94,9.87-3.35,21.21-9.85,28.66-2.17,2.47-5.1,4.13-7.08,6.15-4.76,4.88-2.29,13.06-3.08,19.15-4.21,52.62-32.39,104.28-73.73,136.58-22.02,15.99-48.54,27.85-74.65,35.28-9.32,2.55-19.06,4.49-28.98,4.53-78.32,2.64-154.84-42.45-183.87-116.95-1.91-5.38-5.54-7.86-10.77-9.13-11.17-3.37-20.72-16.99-25.24-27.36-7.39-20.7-12.56-53.87,3.22-71.52,10.15-10.22,19.62,1.67,21.96-9.32,11.06-50.24,47-94.48,92.72-117.52,4.18-1.97,8.83-3.46,12.61-6.11,4.38-3.11,5.08-8.31,5.37-13.49.45-5.87.69-11.63,2.04-17.33,5.47-25.24,39.64-35.82,57.45-17.03l.15.14ZM365.17,257.62c-16.29-7.9-36.42-12.22-54.53-13.62-6.54-.61-13.99,1.38-20.15-1.45-5.56-2.65-7.47-9.21-9.98-14.46-5.61-14.19-20.77-27.43-36.45-20.11-17.49,6.58-21.78,23.36-21.41,40.82.28,5.69-1.26,9.59-6.91,12.03-38.23,19.22-72.05,47.29-90.88,85.86-6.62,13.41-11.37,27.7-14.19,42.37-.62,2.23-.96,4.87-3.3,5.73-3.81.8-8.51-2.72-13.42-1.89-4.28.18-7.56,3.25-9.12,7.12-7.43,17.42-5.05,43.93,3.57,60.7,3.58,6.47,8.8,14.25,15.3,16.71,3.15,1.15,6.62.21,9.3.79,5.56,1.14,6.75,11.79,8.92,16.42,33.59,82.75,134.55,131.95,218.03,103.31,54.3-18.2,99.17-55.64,118.58-110.68,6.9-18.68,13.04-37.72,12.09-57.98-.07-6.93.38-14.41,5.79-19.29,2.3-2.29,5.07-4.12,7.12-6.67,10.62-15.02,6.81-43.61-1.24-59.93-3.58-7.2-12.83-20.82-21.7-19.07-3.66,1-4.84,5.58-7.39,7.92-4.78,4.11-9.43-2.75-11.65-6.74-16.71-30.48-43.72-54.88-76.19-67.82l-.17-.07Z"/>
  <path d="M413.54,323.4c53.63,59.62,50.68,137.49-.54,197.32-27.9,32.59-74.31,53.54-116.78,57.37-28.28,2.55-78.63-7.92-101.46-26.52-12.69-10.34-28.87-24.59-38.46-37.86-48.71-67.44-11.51-152.99-.14-169.04,7.75-10.94,17.25-19.83,17.25-19.83,1.42-1.32,6.24-5.78,13.4-10.93,35.2-25.33,69.86-33.99,69.86-33.99,15.3-3.83,31.3-5.69,48.07-5.44,43.27.64,80.35,17.3,108.8,48.92M307.76,281.39c-15.58-.35-31.22.95-46.29,4.84-.04,2.13-.09,5.16-.12,8.81-.01,1.21-.03,2.69-.03,3.2-.06,10.95,2.28,20.79-.29,21.89-.51.22-1.07.04-1.1.03-1.51-.5-1.81-3.34-1.94-4.61-.84-8.68-1.51-28.49-1.51-28.49,0,0-3.84.57-7.59,1.8-1.91.63-3.23,1.02-3.47,1.1-14.36,4.78-29.08,10.76-41.27,19.79-.01,4.72-.24,19.86-3.85,21.14-.15.06-.42.14-.71.05-2.17-.69-1.21-9.74.04-17.73l-8.84,5.38c-7.49,5.1-17.6,13.29-26.81,25.66-6.04,8.11-10.13,15.93-12.91,22.39,19.4,3.21,34.09-9.69,44.97-24.06.18-.24,5.32-6.25,5.32-6.25,6.37,7.38,7.34,8.39,7.34,8.39,2.54,2.63,6.95,6.5,11.26,8.86,12.71,6.98,25.99-.8,32.53-12.15,3.51-6.1,8.65-15.6,8.65-15.6,2.15,3.32,7.56,10.6,17.36,14.54,2.74,1.1,8.48,3.33,16.02,2.42,2.36-.29,10.91-1.45,17.87-8.77,7.58-7.97,7.9-17.6,7.92-19.83,0,0,9.01,4.38,13.24,5.58,17.65,5.04,42.33-19.34,42.33-19.34,0,0,0,0-.01,0-.01,0-.02-.01-.02-.01-7.56-4.93-18.86-9.15-18.86-9.15-2.79-1.04-7.93-2.86-14.53-4.56-6.54-1.68-12.32-2.68-21.68-4.32-2.77-.49-5.08-.86-6.65-1.12l7.6,21.91c.67,2.81-.85,4.68-3.7,3.68-1.52-.53-7.79-22.59-10.26-25.48M285.91,386.31c1.18-.69,4.55-2.65,8.32-1.62,2.35.64,3.8,2.16,4.28,2.66,2.66,2.85,2.82,6.48,2.87,7.94.2,6.63-4.08,12.13-5.9,14.48-3.11,3.99-5.58,5.28-5.11,7.32.42,1.85,3,3.23,5.21,3.15,3.88-.15,6.42-4.81,8.15-8.08,1.92-3.62,9.3-17.71,2.19-29.72-.89-1.5-3.6-5.93-8.96-8.02-6.54-2.55-14.71-1.02-18.94,3.63-3.35,3.68-3.67,8.66-4.73,8.48-1.15-.19.19-5.95-3.42-9.9-1.67-1.83-3.7-2.51-4.48-2.76-6.92-2.21-13.89,3.42-14.7,2.23-.31-.46.49-1.67,3.56-4.84,6.75-6.98,8.19-6.64,10.39-10.11,2.94-4.64,3.15-9.67,3.2-11.32.06-2.08-.16-3.82-.38-5.04-1.74-4.7-3.03-5.95-3.98-5.88-2.28.18-1.88,8.01-5.91,15.52-4.09,7.65-8.91,7.77-14.86,13.81-11.21,11.37-14.6,31.73-7.49,42.93,2.07,3.27,7.26,9.24,12.26,8.38.33-.06,2.84-.53,3.81-2.46,1.26-2.51-1.44-4.85-3.76-11.14-1.13-3.06-2.67-7.4-1.86-12.47.33-2.05.72-4.52,2.67-6.57,3.32-3.51,9.63-4.21,13.33-1.71.46.31.97.88,1.18,1.09.37.37,2.05,2.1,3.41,4.72,1.88,3.63,2.19,7.15,2.54,11.11.05.62.11,1.41.21,2.99.36,5.52.28,6.71,1.23,7.53.96.83,2.71,1.05,3.9.4,2.33-1.28,1.23-5.16,2.11-10.49.24-1.43,2.1-11.82,9.67-16.22M352.46,405.36c11.02-6.54,17.12-21.65,11.99-34.6-4.27-10.77-15.88-18.96-24.29-17.32-5.02.98-7.46,5.16-14.46,4.92-4.43-.15-8.1-1.8-8.1-1.8-4.41-1.99-5.95-4.64-7.04-4.05-1.42.76-1.15,6.42,1.95,10.14,4.39,5.26,12.82,4.62,14.43,4.47,3.27-.32,6.76-1.75,6.92-1.81,3.12-1.23,3.89-2.15,6.18-2.61,3.42-.68,6.34.47,7.19.81,5.46,2.16,8.57,8,9.38,12.71,1.63,9.53-5.15,20.38-13.05,21.52-4.44.64-8.55-1.89-8.86-2.07-3.03-1.76-6.84-7.95-9.65-9.09-3.95-1.61-6.96-.77-7.96,3.48-1.23,5.27,4.46,13.14,11.37,16.7,7.88,4.05,17.41,2.51,24-1.4M436.84,425.7c2.72-.73,3.83-4.55,4.25-5.98,4.73-16.23-21.17-49.69-36.18-53.02-4.28-.95-7.91,0-7.91,0-5.51,1.45-8.69,5.7-9.91,7.32-5.43,7.27-4.94,20.02,1.18,32.62-2.48-.3-6.49-.39-9.65,1.93-9.49,6.96-3.55,29.85,2.94,42.92,2.13,4.3,9.37,18.89,21.32,20.99,1.68.3,6.42,1.13,8.95-1.59,2.83-3.04,1.04-8.53.95-8.78-2.02-5.93-7.49-5.82-16.64-12.87-4.31-3.32-10.22-8-12.89-15.81-.99-2.9-3.04-8.9.19-13.5,2.36-3.35,7.21-5.51,11.39-4.62,6.71,1.42,9.02,10.09,14.45,9.8.46-.02,1.93-.1,2.98-1.14,1.42-1.41,1.21-3.7,1.14-4.42-.51-5.49-9.51-7.16-15.22-14.52-5.3-6.83-6.93-17.51-2.88-21.26,2.84-2.63,7.96-1.36,9.18-1.05,10.54,2.62,20.57,16.34,21.71,28.95.19,2.12.34,6.46,3.33,10.14.3.37,3.95,4.76,7.3,3.86M226,440.88c2.69-.9,9.51,1.84,10.76-.7,2.79-5.64-8.39-2.76-9.77-5.56-1.41-2.87,6.1-4.89,5.16-8.52-.26-.98-.64-1.5-1.11-1.67-2.26-.86-5.85,6.1-8.92,5.23-.46-.13-.78-.39-.97-.58-1.17-4.1-1.79-7.48-2.14-9.79-.67-4.4-.95-7.97-.95-7.97-.48-6.07-.06-7.69-1.44-9.29-1.41-1.63-2.97-.78-6.17-2.16-4.64-1.99-10.99-7.51-14.28-11.39-1.62-1.91-2.36-5.26-4.51-5.9-.27-.08-1.15-.3-1.97.11,0,0-.99.48-1.47,2-.8,2.5,2.11,10.82,10.01,17.01,2.37,1.85,6.71,4.71,13.29,6.23.71,3.81,1.37,7.76,1.97,11.83.54,3.66,1.01,7.24,1.41,10.72-7.52-1.52-14.36,2.66-13.93,10.77.06,1.13.3,3.7,2.3,5.65,3.02,2.94,7.52,1.95,8.2,1.8.67-.15,3.19-.77,5.24-2.86,1.17-1.18,1.2-1.84,1.7-1.89,1.97-.17,1.05,10.86,7.21,16.38,4.82,4.31,11.99,2.08,19.09,10.06,10.23,11.49,17.3,35.91,3.16,46.83-13.52,10.44-20.3-15.36-29.99-15.1-1.54.04-4.21,2.63-4.68,4.02-2.13,6.23,1.82,13.99,5.12,17.71,2.24,2.52,4.81,4.22,5.85,4.9.85.56,3.28,2.08,6.73,3.34,3.01,1.1,8.3,3.02,14.07,2.12,8.96-1.4,14.23-8.88,16.04-11.44.94-1.34,5.12-7.48,5.95-18.36,1.89-24.63-15.9-46.96-28.2-51.66-2.65-1.01-6.64-.6-8.56-1.85-2.34-1.52-4.42-7.16-4.21-10.01M192.44,494.96c-.92.55-4.36,2.55-8.92,2.18-5.01-.41-8.34-3.43-10.48-5.43-8.26-7.72-10.27-19.15-10.56-20.95-1.14-6.96-.44-11.41-3.51-13.15-1.86-1.05-4.55-.75-6.31.48-6.29,4.4-.94,20.76-.67,21.57,2.36,7.01,6.18,11.61,8.24,14.05,4.46,5.28,8.95,8.23,11.35,9.78,3.87,2.5,6.26,3.33,7.14,3.62,1.86.6,5,1.38,8.86,1.21,1.97-.09,4.2-.21,6.68-1.5.03-.01.07-.04.12-.06,0,0,1.26-.67,2.46-1.7,3.56-3.08,6.34-7.49,6.34-7.49,1.34-2.12,3.31-5.24,4.72-9.62,2.42-7.57,1.57-14.03,1.05-17.71,0,0-1.47-10.3-7.05-18.43-2.35-3.43-3.72-5.42-6.38-6.48-1.49-.59-2.94-.71-3.29-1.72-.45-1.33,1.39-2.84,2.67-4.33,3.07-3.55,2.44-11.12-.94-16.1-3.57-5.26-10.46-7.98-16.03-6.42-.77.21-5.3,1.48-6.64,5.36-.67,1.95-.76,5.2,1.26,6.58,1.42.97,3.59.82,4.99-.13,1.96-1.33,1.42-3.56,3.38-4.65,1.1-.61,2.51-.45,3.61-.19,6.25,1.5,4.81,11.13,1.51,15.04-1.66,1.97-4.35,2.03-5.76,4.93-.77,1.58-.52,2.58-.42,2.91.4,1.27,1.55,1.88,1.81,2.01,1.83.92,3.21-.32,5.1-.26,3.07.09,5.27,3.49,8,7.73,2.75,4.26,3.97,8,4.25,8.86,1.3,3.99,3.15,9.67,1.73,16.57-.47,2.3-1.93,9.64-8.33,13.48M352.72,425.87c-6.45-4.25-10.04-5.76-13.43-5.62-1.14.05-5.47.29-9.17,3.49-2.19,1.89-3.16,3.96-4.03,5.86-.89,1.96-2.29,7.61-1.52,14.32.68,5.88,6.99,11.36,8.21,2.09.6-4.6-1.31-6.14-.18-10.17.27-.98.89-3.06,2.81-4.49,1.9-1.41,4.05-1.4,5.19-1.38,1.49.03,3.96.36,8.88,3.63,5.96,3.96,9.53,8.25,11.71,12.55,1.14,2.26,1.32,3.38.85,4.15-1.08,1.79-4.79.42-8.38,1.19-5.68,1.23-8.88,7.36-10.24,9.99-7.38,14.17,2.2,36.94,14.48,41.43,1.17.43,4.62,1.69,8.73.74,5.41-1.25,8.48-5.51,9.39-6.79,5.4-7.52,3.76-17,2.58-25.07-.68-4.65-2.78-11.18-4.48-15.65-3.42-9.02-13.39-25.02-21.4-30.29M283.68,485.39c-2.58.36-4.13,2.76-4.75,3.72-3.74,5.79-2.3,19.15,5.48,28.95,1.96,2.48,10.11,12.75,21.6,12.23,17.26-.79,25.07-25.22,25.4-26.32,5.1-16.69-1.61-33.44-10.23-43.17-2.02-2.28-6.01-6.7-12.59-9.89-10.31-4.99-14.62-.97-22.91-5.61-10.15-5.68-12.34-16.57-16.23-15.48-2.71.76-3.12,6.47-3.18,7.19-.7,9.65,9.19,16.32,10.44,17.14,2.38,1.56,4.6,2.3,8.95,3.71,10.16,3.3,12.85,2.35,17.29,4.01,13.27,4.96,17.89,24.24,18.21,33.62.23,6.88-1.76,10.75-2.55,12.13-.77,1.34-2.38,4.05-5.67,6-.73.43-5.88,3.39-11.3,1.68-7.41-2.34-9.93-11.73-10.29-13.05-1.95-7.27.8-11.99-2.81-15.19-.26-.23-2.35-2.03-4.87-1.67M390.71,532.75c-4.01-2.45-22.68-13.3-42.61-6.93-3,.96-17.3,5.53-25.96,18.5-4.61,6.9-6.46,14.52-10.54,14.42-2.61-.06-3.69-3.06-6.87-6.81-9.27-10.92-23.48-13-26.16-13.4-3.8-.56-12.81-1.88-21.76,2.62-5.59,2.81-9.75,7.18-15.51,13.23-2.68,2.82-4.76,5.29-6.14,7.02,2.18.64,5.16,1.48,8.7,2.41,0,0,4.13,1.09,7.53,1.9,16.82,4.01,31.13,4.25,31.13,4.25,14.95.25,29.58-2.54,29.58-2.54,0,0,.24-5.03,1.21-5.21.51-.1,1.35,1.14,2.73,4.95,7.9-1.73,14.53-3.61,19.6-5.2,12.54-3.92,25.91-8.2,40.25-17.65,6.71-4.43,11.72-8.73,14.82-11.58"/>
  <path d="M105.3,456.31s-2.33.38-3.26.17c-3.73-.87-5.51-5.08-6.78-8.15-1.02-2.47-2.41-5.99-1.11-9.64.34-.95.92-2.59,2.08-2.8,1.87-.35,2.91,3.48,6.29,4.18,1.37.29,3.31.1,4.44-.95,1.96-1.83.11-5-1.7-14.37,0,0-1.54-8-5-18.65-.05-.14-.19-.57-.56-.99-.69-.77-2.04-1.35-2.78-.94-1.39.77-.48,4.97-.02,7.12.28,1.27.47,1.78,1.04,3.67,1.07,3.59,1.69,6.17,2.28,8.65,1.02,4.29,1.77,7.51,1.08,7.81-.54.23-1.15-1.66-3.14-2.39-2.88-1.04-6.06,1.31-6.43,1.58-1.93,1.43-3.09,3.69-3.63,6-2.59,10.71,6.4,33.29,18.8,28.26,4.14-2.08,4.96-10.59-1.61-8.57"/>
  <path d="M237.27,225.33c.28-.17,2.12-1.26,3.61-.75,3.82,1.3,5.61,13.25.45,18.4-.34.34-2.66,2.65-4.84,2.03-1.89-.55-2.62-3.01-3.14-4.79-1.42-4.8.22-8.91.89-10.59,1.24-3.12,2.57-4.01,3.04-4.29"/>
  <path d="M261.63,221.68c.75.19,1.46.5,2.1.92.43.27.91.61,1.42,1.02,4.08,3.25,8.11,9.57,5.9,13.27-.85,1.43-2.72,2.59-4.6,2.56-6.52-.11-12.37-14.43-9.21-17.44.77-.74,2.19-.89,4.38-.32"/>
  <path class="cls-1" d="M210.53,436.17c10.64-2.45,4.66,9.04-2.6,7.18-4.34-1.11-.24-6.52,2.6-7.18"/>
  <path class="cls-1" d="M359.74,457.76c7.65.71,10.72,14.67,11.07,16.32.76,3.65,2.01,9.62-1.52,14.48-.57.78-3.22,4.43-7.11,4.57-6.38.23-10.57-9.18-11.75-11.81-.98-2.2-3.66-8.43-1.52-15.05.42-1.32,1.17-3.53,3.24-5.46.25-.23,3.73-3.4,7.6-3.05"/>
  <path d="M470.61,385.37s2.36-.14,3.22-.56c3.45-1.67,4.24-6.18,4.8-9.45.44-2.63,1.02-6.38-1.06-9.65-.54-.85-1.48-2.32-2.65-2.27-1.9.08-2.07,4.04-5.2,5.47-1.27.58-3.21.84-4.55.06-2.31-1.35-1.21-4.85-1.54-14.38,0,0-.27-8.14.73-19.29.01-.15.06-.6.33-1.09.5-.9,1.69-1.77,2.5-1.53,1.52.44,1.57,4.74,1.6,6.94.02,1.3-.06,1.84-.2,3.81-.25,3.74-.28,6.39-.3,8.94-.04,4.41-.06,7.72.68,7.86.58.11.75-1.88,2.53-3.02,2.58-1.66,6.2-.07,6.62.11,2.2.96,3.83,2.91,4.87,5.05,4.91,9.86,1.15,33.88-12.05,31.73-4.49-1.11-7.19-9.23-.33-8.72"/>
</svg>