<?xml version="1.0" encoding="UTF-8"?>
<svg id="Layer_1" xmlns="http://www.w3.org/2000/svg" version="1.1" viewBox="0 0 595.28 841.89">
  <!-- Generator: Adobe Illustrator 29.8.3, SVG Export Plug-In . SVG Version: 2.1.1 Build 3)  -->
  <defs>
    <style>
      .st0 {
        fill: #fff;
      }
    </style>
  </defs>
  <g>
    <path class="st0" d="M246.44,394.63c4.55-4.81,13.19-5.77,18.27-2.35.64.43,1.33,1.21,1.61,1.49.51.51,2.81,2.88,4.67,6.47,2.58,4.98,3,9.79,3.48,15.22.07.85.14,1.93.28,4.09.49,7.57.39,9.19,1.69,10.31,1.32,1.14,3.71,1.44,5.35.54,3.19-1.75,1.68-7.08,2.89-14.38.32-1.96,2.88-16.2,13.26-22.23,1.62-.94,6.24-3.63,11.41-2.22,3.22.88,5.21,2.96,5.86,3.65,3.65,3.9,3.87,8.88,3.93,10.88.28,9.09-5.58,16.62-8.09,19.84-4.26,5.47-7.65,7.23-7.01,10.03.58,2.53,4.11,4.43,7.14,4.31,5.31-.2,8.8-6.59,11.18-11.07,2.63-4.97,12.74-24.27,3-40.73-1.21-2.05-4.93-8.13-12.28-11-8.96-3.49-20.15-1.39-25.96,4.97-4.6,5.04-5.03,11.86-6.48,11.62-1.58-.26.26-8.15-4.69-13.57-2.29-2.51-5.07-3.44-6.15-3.79-9.48-3.03-19.04,4.69-20.14,3.06-.43-.63.67-2.28,4.88-6.63,9.25-9.56,11.23-9.1,14.24-13.85,4.03-6.36,4.32-13.25,4.39-15.51.09-2.85-.22-5.23-.52-6.91-2.39-6.44-4.16-8.15-5.45-8.06-3.13.24-2.58,10.97-8.09,21.28-5.61,10.48-12.21,10.65-20.36,18.93-15.36,15.59-20.01,43.48-10.27,58.84,2.84,4.48,9.94,12.67,16.8,11.49.46-.08,3.9-.72,5.22-3.37,1.72-3.45-1.97-6.64-5.15-15.27-1.55-4.19-3.66-10.14-2.55-17.1.45-2.8.99-6.19,3.65-9.01Z"/>
    <path class="st0" d="M182.8,483.56c-3.23-4.7-5.1-7.43-8.75-8.88-2.04-.81-4.03-.98-4.5-2.36-.62-1.82,1.9-3.9,3.66-5.93,4.21-4.86,3.35-15.25-1.29-22.07-4.89-7.2-14.34-10.94-21.97-8.8-1.05.29-7.26,2.03-9.1,7.34-.92,2.67-1.04,7.13,1.73,9.01,1.94,1.32,4.93,1.12,6.84-.18,2.68-1.82,1.94-4.88,4.64-6.38,1.5-.84,3.43-.62,4.95-.26,8.56,2.06,6.59,15.26,2.07,20.61-2.28,2.7-5.95,2.78-7.89,6.75-1.06,2.17-.71,3.54-.57,3.99.55,1.74,2.13,2.58,2.48,2.76,2.51,1.26,4.4-.43,7-.36,4.2.12,7.22,4.79,10.97,10.59,3.77,5.84,5.45,10.96,5.83,12.14,1.78,5.47,4.32,13.25,2.37,22.71-.65,3.16-2.65,13.21-11.42,18.47-1.26.76-5.97,3.49-12.22,2.98-6.87-.56-11.43-4.7-14.36-7.44-11.32-10.58-14.08-26.24-14.48-28.72-1.56-9.54-.6-15.64-4.81-18.02-2.55-1.44-6.23-1.03-8.65.66-8.62,6.02-1.29,28.45-.91,29.56,3.24,9.61,8.47,15.92,11.29,19.25,6.12,7.23,12.26,11.28,15.55,13.4,5.3,3.43,8.58,4.57,9.79,4.96,2.56.83,6.85,1.89,12.14,1.66,2.7-.12,5.76-.29,9.16-2.05.04-.02.1-.05.17-.09,0,0,1.73-.92,3.37-2.34,4.87-4.22,8.69-10.26,8.69-10.26,1.83-2.9,4.54-7.18,6.46-13.18,3.32-10.37,2.15-19.23,1.43-24.28,0,0-2.01-14.11-9.66-25.26Z"/>
    <path class="st0" d="M301.56,531.88c-.35-.31-3.22-2.78-6.68-2.29-3.53.49-5.66,3.78-6.51,5.1-5.12,7.93-3.15,26.24,7.5,39.68,2.69,3.39,13.86,17.48,29.6,16.75,23.66-1.09,34.35-34.56,34.82-36.07,6.99-22.87-2.21-45.83-14.01-59.17-2.77-3.13-8.24-9.18-17.25-13.55-14.13-6.84-20.04-1.32-31.39-7.68-13.91-7.79-16.91-22.71-22.24-21.21-3.72,1.05-4.28,8.87-4.35,9.86-.96,13.23,12.59,22.37,14.31,23.49,3.27,2.13,6.31,3.15,12.26,5.08,13.92,4.53,17.62,3.22,23.7,5.49,18.19,6.8,24.51,33.22,24.95,46.07.32,9.43-2.41,14.73-3.5,16.62-1.06,1.83-3.26,5.55-7.77,8.22-1,.6-8.06,4.65-15.49,2.31-10.16-3.21-13.61-16.07-14.1-17.88-2.67-9.96,1.1-16.43-3.85-20.82Z"/>
    <path class="st0" d="M174.78,333.85c.25-.33,7.29-8.56,7.29-8.56,8.73,10.12,10.07,11.5,10.07,11.5,3.48,3.6,9.53,8.9,15.43,12.15,17.42,9.56,35.62-1.09,44.58-16.65,4.82-8.36,11.85-21.37,11.85-21.37,2.95,4.55,10.35,14.52,23.79,19.93,3.75,1.51,11.63,4.57,21.95,3.32,3.24-.39,14.96-1.99,24.49-12.03,10.38-10.93,10.83-24.12,10.85-27.17,0,0,12.35,6,18.14,7.65,24.19,6.91,58.01-26.5,58.02-26.5,0,0,0,0-.02,0-.02,0-.03-.02-.03-.02-10.36-6.76-25.85-12.54-25.85-12.54-3.82-1.43-10.87-3.92-19.92-6.25-8.96-2.31-16.89-3.68-29.72-5.92-3.8-.66-6.96-1.18-9.12-1.53l10.42,30.03c.92,3.85-1.16,6.41-5.07,5.04-2.08-.72-10.68-30.96-14.06-34.92-21.36-.47-42.79,1.3-63.44,6.63-.05,2.92-.12,7.07-.17,12.08-.02,1.65-.04,3.68-.04,4.39-.08,15,3.12,28.5-.4,30-.69.3-1.47.05-1.5.04-2.07-.68-2.49-4.58-2.66-6.32-1.15-11.89-2.07-39.05-2.07-39.05,0,0-5.26.78-10.4,2.47-2.61.86-4.43,1.4-4.75,1.51-19.68,6.56-39.85,14.74-56.57,27.12-.02,6.47-.33,27.22-5.28,28.98-.21.08-.57.2-.98.07-2.98-.94-1.66-13.34.05-24.3l-12.12,7.37c-10.26,6.99-24.12,18.21-36.74,35.17-8.28,11.12-13.88,21.83-17.69,30.68,26.59,4.39,46.72-13.28,61.64-32.97Z"/>
    <path class="st0" d="M241.83,596.49c12.28-1.93,19.51-12.17,21.99-15.68,1.29-1.83,7.01-10.25,8.16-25.17,2.59-33.76-21.79-64.35-38.64-70.8-3.63-1.39-9.1-.82-11.73-2.53-3.21-2.09-6.05-9.81-5.77-13.72,3.69-1.24,13.03,2.52,14.75-.95,3.82-7.73-11.49-3.79-13.38-7.62-1.94-3.93,8.36-6.7,7.06-11.68-.35-1.35-.88-2.05-1.52-2.29-3.1-1.18-8.02,8.35-12.22,7.17-.63-.18-1.07-.54-1.33-.79-1.6-5.61-2.46-10.24-2.94-13.42-.92-6.03-1.31-10.92-1.31-10.92-.66-8.31-.08-10.54-1.97-12.73-1.93-2.23-4.06-1.07-8.45-2.96-6.36-2.73-15.07-10.29-19.58-15.61-2.22-2.62-3.23-7.21-6.18-8.09-.38-.11-1.57-.41-2.7.15,0,0-1.35.66-2.01,2.74-1.1,3.42,2.88,14.83,13.72,23.31,3.24,2.54,9.19,6.45,18.22,8.54.97,5.22,1.87,10.63,2.7,16.21.74,5.02,1.38,9.92,1.93,14.69-10.3-2.08-19.68,3.65-19.09,14.77.08,1.54.41,5.07,3.16,7.75,4.13,4.03,10.31,2.68,11.24,2.47.92-.2,4.37-1.06,7.18-3.92,1.6-1.62,1.64-2.52,2.33-2.58,2.7-.23,1.43,14.89,9.89,22.45,6.61,5.91,16.44,2.86,26.16,13.78,14.01,15.75,23.71,49.22,4.33,64.18-18.52,14.31-27.82-21.05-41.11-20.7-2.11.06-5.76,3.6-6.42,5.51-2.92,8.54,2.49,19.17,7.02,24.27,3.07,3.46,6.59,5.78,8.02,6.71,1.17.76,4.49,2.85,9.22,4.57,4.12,1.5,11.38,4.14,19.28,2.91ZM191.07,471.97c-5.95-1.53-.33-8.94,3.56-9.83,14.59-3.36,6.39,12.39-3.56,9.83Z"/>
    <path class="st0" d="M390.77,483.16c-7.79,1.68-12.17,10.09-14.04,13.68-10.11,19.42,3.02,50.63,19.85,56.78,1.6.58,6.33,2.31,11.96,1.02,7.42-1.71,11.62-7.56,12.87-9.31,7.4-10.3,5.15-23.3,3.54-34.36-.93-6.37-3.81-15.33-6.13-21.44-4.69-12.36-18.35-34.29-29.32-41.51-8.84-5.82-13.76-7.9-18.4-7.7-1.57.07-7.5.4-12.57,4.79-3,2.59-4.33,5.43-5.52,8.04-1.23,2.68-3.14,10.43-2.08,19.63.94,8.06,9.58,15.57,11.25,2.87.83-6.31-1.8-8.42-.25-13.94.37-1.34,1.22-4.2,3.84-6.15,2.61-1.94,5.55-1.92,7.11-1.89,2.05.04,5.42.5,12.16,4.98,8.17,5.43,13.07,11.3,16.04,17.2,1.56,3.09,1.8,4.63,1.16,5.69-1.48,2.45-6.56.57-11.49,1.63ZM414.29,514.09c1.05,5.01,2.76,13.18-2.09,19.84-.78,1.07-4.42,6.07-9.75,6.26-8.74.32-14.49-12.58-16.1-16.18-1.34-3.01-5.01-11.56-2.09-20.62.58-1.81,1.6-4.83,4.44-7.48.34-.32,5.12-4.67,10.41-4.18,10.48.97,14.7,20.11,15.17,22.36Z"/>
    <path class="st0" d="M372.28,348.77c-6.88,1.34-10.23,7.07-19.82,6.74-6.07-.21-11.1-2.47-11.1-2.47-6.05-2.72-8.15-6.36-9.65-5.55-1.94,1.04-1.58,8.81,2.68,13.9,6.02,7.2,17.57,6.34,19.77,6.12,4.48-.44,9.26-2.4,9.49-2.48,4.27-1.69,5.34-2.95,8.46-3.57,4.69-.93,8.69.65,9.85,1.11,7.48,2.96,11.75,10.96,12.86,17.42,2.23,13.06-7.06,27.93-17.89,29.49-6.08.88-11.72-2.59-12.14-2.84-4.15-2.41-9.38-10.89-13.22-12.45-5.41-2.2-9.55-1.05-10.91,4.77-1.69,7.23,6.11,18.01,15.58,22.89,10.8,5.55,23.86,3.44,32.89-1.91,15.1-8.96,23.46-29.68,16.43-47.42-5.85-14.76-21.77-25.98-33.29-23.73Z"/>
    <path class="st0" d="M383.17,585c-4.11,1.32-23.7,7.58-35.58,25.35-6.31,9.45-8.85,19.89-14.45,19.76-3.58-.09-5.05-4.19-9.41-9.33-12.7-14.96-32.18-17.82-35.86-18.36-5.21-.76-17.55-2.58-29.82,3.59-7.67,3.85-13.36,9.84-21.25,18.13-3.68,3.86-6.52,7.26-8.42,9.63,2.99.87,7.07,2.03,11.93,3.31,0,0,5.66,1.49,10.33,2.61,23.05,5.5,42.67,5.83,42.67,5.83,20.49.34,40.54-3.48,40.54-3.48,0,0,.33-6.89,1.65-7.13.7-.13,1.84,1.56,3.74,6.79,10.83-2.38,19.92-4.95,26.86-7.12,17.19-5.37,35.51-11.24,55.16-24.19,9.2-6.07,16.06-11.96,20.31-15.87-5.49-3.36-31.08-18.23-58.4-9.5Z"/>
    <path class="st0" d="M567.06,335c-4.9-9.87-17.58-28.53-29.73-26.14-5.02,1.36-6.64,7.65-10.13,10.86-6.55,5.63-12.93-3.77-15.97-9.24-22.89-41.78-59.91-75.21-104.42-92.95l-.24-.1c-22.33-10.83-49.91-16.75-74.73-18.67-8.96-.84-19.17,1.9-27.61-1.99-7.63-3.64-10.24-12.62-13.68-19.81-7.68-19.45-28.46-37.59-49.96-27.56-23.97,9.01-29.85,32.01-29.34,55.95.38,7.8-1.72,13.15-9.47,16.48-52.39,26.34-98.75,64.82-124.55,117.67-9.08,18.38-15.59,37.97-19.45,58.07-.85,3.05-1.32,6.68-4.52,7.86-5.22,1.1-11.66-3.72-18.39-2.58-5.87.25-10.37,4.45-12.51,9.76-10.18,23.88-6.92,60.21,4.89,83.19,4.91,8.86,12.06,19.54,20.98,22.9,4.32,1.57,9.07.29,12.74,1.08,7.62,1.57,9.25,16.15,12.22,22.5,46.04,113.41,184.4,180.83,298.81,141.58,74.41-24.94,135.92-76.26,162.51-151.68,9.46-25.6,17.87-51.7,16.57-79.46-.09-9.5.52-19.76,7.94-26.44,3.15-3.13,6.94-5.65,9.76-9.14,14.56-20.59,9.34-59.77-1.71-82.14ZM52.63,501.49c-16.98,6.89-29.32-24.05-25.76-38.73.74-3.17,2.32-6.27,4.97-8.23.51-.37,4.86-3.6,8.82-2.17,2.74.99,3.57,3.59,4.31,3.27.95-.41-.08-4.82-1.48-10.7-.81-3.4-1.65-6.94-3.13-11.86-.78-2.59-1.04-3.29-1.42-5.03-.64-2.94-1.88-8.7.02-9.76,1.01-.56,2.86.23,3.81,1.28.51.57.7,1.16.77,1.35,4.73,14.6,6.85,25.56,6.85,25.56,2.48,12.84,5.01,17.18,2.33,19.69-1.55,1.45-4.22,1.7-6.09,1.31-4.62-.97-6.05-6.21-8.61-5.73-1.59.29-2.39,2.54-2.85,3.84-1.79,5.01.12,9.84,1.52,13.22,1.73,4.2,4.17,9.98,9.29,11.17,1.27.3,4.47-.23,4.47-.23,9-2.77,7.88,8.9,2.21,11.75ZM258.66,168.62c1.06-1.01,3-1.22,6-.44,1.02.26,2,.69,2.88,1.25.59.38,1.25.84,1.95,1.39,5.59,4.46,11.11,13.12,8.09,18.19-1.17,1.96-3.72,3.56-6.31,3.51-8.93-.15-16.96-19.78-12.62-23.91ZM227.12,179.06c1.7-4.28,3.52-5.49,4.17-5.88.39-.23,2.91-1.73,4.94-1.03,5.23,1.78,7.69,18.16.61,25.21-.47.46-3.65,3.64-6.63,2.78-2.59-.75-3.59-4.13-4.31-6.56-1.94-6.58.3-12.2,1.22-14.52ZM472.13,578.01c-38.23,44.66-101.85,73.37-160.05,78.62-38.75,3.5-107.77-10.86-139.05-36.35-17.39-14.17-39.57-33.7-52.71-51.89-66.76-92.43-15.77-209.68-.2-231.66,10.62-15,23.64-27.17,23.64-27.17,1.94-1.81,8.56-7.92,18.37-14.98,48.25-34.71,95.75-46.59,95.75-46.59,20.97-5.25,42.89-7.8,65.88-7.46,59.3.88,110.12,23.71,149.1,67.05,73.5,81.71,69.45,188.44-.73,270.42ZM551.53,404.46c-6.16-1.52-9.85-12.64-.46-11.95,0,0,3.23-.2,4.41-.77,4.72-2.29,5.82-8.47,6.57-12.95.61-3.61,1.4-8.74-1.46-13.22-.74-1.16-2.02-3.18-3.64-3.11-2.61.11-2.84,5.53-7.13,7.5-1.74.8-4.4,1.15-6.23.08-3.17-1.85-1.67-6.65-2.11-19.71,0,0-.37-11.16,1-26.44.02-.2.08-.82.45-1.49.69-1.24,2.31-2.42,3.42-2.1,2.09.61,2.16,6.5,2.19,9.51.02,1.78-.09,2.52-.27,5.22-.34,5.12-.38,8.76-.41,12.26-.06,6.05-.08,10.58.94,10.77.79.15,1.03-2.57,3.47-4.15,3.54-2.27,8.5-.1,9.08.15,3.02,1.32,5.25,3.99,6.67,6.92,6.73,13.52,1.58,46.43-16.51,43.48Z"/>
    <path class="st0" d="M450.18,366.93c-7.56,1.98-11.92,7.81-13.58,10.04-7.45,9.96-6.77,27.43,1.62,44.71-3.4-.41-8.89-.54-13.23,2.65-13,9.54-4.86,40.91,4.03,58.82,2.93,5.89,12.85,25.89,29.21,28.77,2.3.41,8.8,1.55,12.27-2.18,3.88-4.17,1.42-11.68,1.31-12.03-2.77-8.13-10.27-7.98-22.8-17.64-5.9-4.55-14.01-10.96-17.66-21.67-1.36-3.98-4.16-12.2.26-18.5,3.23-4.6,9.87-7.55,15.61-6.33,9.19,1.95,12.37,13.82,19.8,13.43.63-.03,2.64-.14,4.09-1.57,1.95-1.93,1.66-5.07,1.57-6.06-.7-7.53-13.04-9.82-20.85-19.89-7.27-9.36-9.5-24-3.95-29.13,3.9-3.6,10.91-1.86,12.58-1.44,14.45,3.59,28.19,22.39,29.75,39.68.26,2.91.46,8.85,4.56,13.9.42.51,5.41,6.52,10.01,5.29,3.73-1,5.25-6.23,5.82-8.19,6.49-22.24-29.02-68.1-49.59-72.66-5.87-1.3-10.84,0-10.84,0Z"/>
  </g>
  <g>
    <path d="M562.09,311.35c-7.76-7.88-19.18-16.97-30.25-11.49-2.19,1.19-4.22,3.18-6.07,4.6-5.41,4.51-9.27-4.52-12.17-8.41-28.52-43.82-74.61-79.31-123.8-95.57-22.7-7.45-46.61-11.75-70.55-12.46-4.56-.1-9.33-.53-12.28-4.24-3.36-3.97-6.27-11.47-9.29-16.71-3.52-6.53-7.94-12.16-13.36-17.49l-.2-.19c-24.41-25.75-71.24-11.25-78.74,23.34-1.86,7.8-2.19,15.7-2.8,23.75-.4,7.11-1.35,14.23-7.36,18.49-5.19,3.62-11.56,5.67-17.29,8.37-62.66,31.58-111.91,92.21-127.07,161.06-3.21,15.06-16.19-1.23-30.1,12.77-21.62,24.19-14.54,69.66-4.41,98.02,6.2,14.21,19.3,32.88,34.6,37.49,7.17,1.74,12.14,5.14,14.76,12.52,39.78,102.09,144.65,163.9,252,160.28,13.6-.05,26.95-2.71,39.72-6.21,35.79-10.18,72.13-26.44,102.31-48.35,56.66-44.27,95.27-115.07,101.05-187.19,1.08-8.34-2.29-19.56,4.23-26.24,2.71-2.78,6.72-5.05,9.7-8.44,8.91-10.22,12.21-25.75,13.5-39.28,2.47-27.06-7.47-57.36-26.16-78.41ZM568.77,417.13c-2.82,3.5-6.61,6.01-9.76,9.14-7.42,6.68-8.03,16.93-7.94,26.44,1.3,27.76-7.1,53.86-16.57,79.46-26.59,75.42-88.1,126.74-162.51,151.68-114.41,39.25-252.77-28.18-298.81-141.58-2.97-6.34-4.6-20.93-12.22-22.5-3.67-.79-8.42.49-12.74-1.08-8.92-3.37-16.07-14.04-20.98-22.9-11.81-22.98-15.07-59.32-4.89-83.19,2.14-5.31,6.64-9.52,12.51-9.76,6.73-1.14,13.17,3.68,18.39,2.58,3.2-1.18,3.67-4.81,4.52-7.86,3.87-20.1,10.37-39.69,19.45-58.07,25.8-52.85,72.16-91.33,124.55-117.67,7.75-3.34,9.85-8.68,9.47-16.48-.51-23.93,5.37-46.93,29.34-55.95,21.49-10.03,42.28,8.11,49.96,27.56,3.44,7.2,6.05,16.18,13.68,19.81,8.44,3.89,18.66,1.15,27.61,1.99,24.82,1.92,52.41,7.84,74.73,18.67l.24.1c44.5,17.74,81.52,51.17,104.42,92.95,3.05,5.48,9.42,14.88,15.97,9.24,3.49-3.21,5.11-9.49,10.13-10.86,12.15-2.39,24.83,16.27,29.73,26.14,11.04,22.36,16.26,61.55,1.71,82.14Z"/>
    <path d="M50.42,489.74s-3.19.53-4.47.23c-5.11-1.19-7.55-6.97-9.29-11.17-1.39-3.38-3.31-8.21-1.52-13.22.46-1.3,1.27-3.55,2.85-3.84,2.57-.48,3.99,4.76,8.61,5.73,1.87.39,4.54.14,6.09-1.31,2.68-2.5.15-6.85-2.33-19.69,0,0-2.11-10.96-6.85-25.56-.06-.2-.26-.79-.77-1.35-.94-1.06-2.8-1.84-3.81-1.28-1.9,1.06-.66,6.81-.02,9.76.38,1.74.65,2.44,1.42,5.03,1.47,4.92,2.32,8.46,3.13,11.86,1.4,5.88,2.43,10.29,1.48,10.7-.74.32-1.57-2.28-4.31-3.27-3.95-1.43-8.31,1.79-8.82,2.17-2.65,1.96-4.23,5.06-4.97,8.23-3.56,14.68,8.78,45.62,25.76,38.73,5.67-2.85,6.79-14.52-2.21-11.75Z"/>
    <path d="M230.21,200.14c2.98.86,6.16-2.31,6.63-2.78,7.08-7.05,4.62-23.43-.61-25.21-2.04-.69-4.56.8-4.94,1.03-.65.39-2.47,1.6-4.17,5.88-.92,2.31-3.16,7.94-1.22,14.52.72,2.43,1.71,5.81,4.31,6.56Z"/>
    <path d="M271.27,192.53c2.59.04,5.14-1.55,6.31-3.51,3.02-5.07-2.5-13.73-8.09-18.19-.7-.56-1.36-1.02-1.95-1.39-.88-.56-1.86-.99-2.88-1.25-3.01-.78-4.94-.56-6,.44-4.34,4.12,3.69,23.75,12.62,23.91Z"/>
    <path d="M323.76,240.53c-22.99-.34-44.91,2.21-65.88,7.46,0,0-47.5,11.87-95.75,46.59-9.81,7.06-16.43,13.16-18.37,14.98,0,0-13.02,12.17-23.64,27.17-15.58,21.99-66.56,139.23.2,231.66,13.14,18.19,35.32,37.73,52.71,51.89,31.29,25.49,100.3,39.84,139.05,36.35,58.2-5.25,121.81-33.96,160.05-78.62,70.19-81.99,74.23-188.71.73-270.42-38.98-43.34-89.8-66.17-149.1-67.05ZM130.83,336.14c12.62-16.96,26.48-28.18,36.74-35.17l12.12-7.37c-1.72,10.96-3.03,23.36-.05,24.3.41.13.77,0,.98-.07,4.94-1.75,5.26-22.51,5.28-28.98,16.72-12.37,36.89-20.56,56.57-27.12.32-.11,2.14-.64,4.75-1.51,5.14-1.7,10.4-2.47,10.4-2.47,0,0,.92,27.16,2.07,39.05.17,1.74.59,5.64,2.66,6.32.04.01.81.26,1.5-.04,3.52-1.5.31-15,.4-30,0-.7.02-2.74.04-4.39.05-5.01.12-9.15.17-12.08,20.65-5.33,42.08-7.1,63.44-6.63,3.38,3.96,11.98,34.2,14.06,34.92,3.91,1.36,5.99-1.19,5.07-5.04l-10.42-30.03c2.16.35,5.32.87,9.12,1.53,12.83,2.24,20.76,3.61,29.72,5.92,9.05,2.33,16.1,4.82,19.92,6.25,0,0,15.49,5.78,25.85,12.54,0,0,.01,0,.03.02,0,0,.02,0,.02,0,0,0-33.83,33.41-58.02,26.5-5.8-1.65-18.14-7.65-18.14-7.65-.02,3.05-.46,16.24-10.85,27.17-9.54,10.03-21.25,11.63-24.49,12.03-10.32,1.25-18.2-1.81-21.95-3.32-13.44-5.41-20.85-15.38-23.79-19.93,0,0-7.04,13.01-11.85,21.37-8.96,15.55-27.16,26.21-44.58,16.65-5.91-3.24-11.96-8.54-15.43-12.15,0,0-1.34-1.39-10.07-11.5,0,0-7.04,8.23-7.29,8.56-14.92,19.69-35.04,37.36-61.64,32.97,3.82-8.85,9.42-19.56,17.69-30.68ZM401.1,475.84c-2.98-5.9-7.88-11.77-16.04-17.2-6.74-4.48-10.12-4.94-12.16-4.98-1.57-.03-4.5-.05-7.11,1.89-2.63,1.95-3.47,4.81-3.84,6.15-1.54,5.52,1.08,7.64.25,13.94-1.67,12.7-10.31,5.2-11.25-2.87-1.07-9.19.85-16.95,2.08-19.63,1.19-2.61,2.53-5.44,5.52-8.04,5.07-4.39,11-4.72,12.57-4.79,4.65-.19,9.56,1.88,18.4,7.7,10.97,7.22,24.63,29.15,29.32,41.51,2.32,6.12,5.21,15.07,6.13,21.44,1.61,11.06,3.86,24.05-3.54,34.36-1.26,1.75-5.46,7.6-12.87,9.31-5.64,1.3-10.37-.43-11.96-1.02-16.83-6.15-29.96-37.36-19.85-56.78,1.87-3.59,6.25-12,14.04-13.68,4.92-1.06,10,.82,11.49-1.63.64-1.06.4-2.6-1.16-5.69ZM305.41,552.7c.49,1.81,3.93,14.67,14.1,17.88,7.42,2.34,14.48-1.71,15.49-2.31,4.5-2.68,6.71-6.39,7.77-8.22,1.09-1.89,3.82-7.19,3.5-16.62-.44-12.86-6.76-39.27-24.95-46.07-6.08-2.27-9.77-.96-23.7-5.49-5.95-1.94-8.99-2.95-12.26-5.08-1.72-1.12-15.27-10.26-14.31-23.49.07-.99.64-8.81,4.35-9.86,5.33-1.5,8.33,13.42,22.24,21.21,11.36,6.36,17.26.84,31.39,7.68,9.01,4.36,14.48,10.42,17.25,13.55,11.81,13.34,21,36.3,14.01,59.17-.46,1.51-11.16,34.98-34.82,36.07-15.74.72-26.91-13.36-29.6-16.75-10.66-13.44-12.63-31.75-7.5-39.68.85-1.32,2.97-4.6,6.51-5.1,3.46-.48,6.32,1.98,6.68,2.29,4.95,4.39,1.18,10.86,3.85,20.82ZM245.34,420.74c3.18,8.63,6.87,11.83,5.15,15.27-1.32,2.65-4.76,3.29-5.22,3.37-6.85,1.18-13.95-7.01-16.8-11.49-9.74-15.36-5.09-43.26,10.27-58.84,8.15-8.27,14.75-8.45,20.36-18.93,5.51-10.3,4.97-21.03,8.09-21.28,1.3-.1,3.06,1.61,5.45,8.06.31,1.68.61,4.06.52,6.91-.07,2.26-.36,9.15-4.39,15.51-3.01,4.75-5,4.29-14.24,13.85-4.21,4.35-5.3,6-4.88,6.63,1.1,1.63,10.66-6.09,20.14-3.06,1.08.35,3.86,1.28,6.15,3.79,4.95,5.43,3.11,13.32,4.69,13.57,1.45.24,1.88-6.58,6.48-11.62,5.81-6.37,17-8.47,25.96-4.97,7.35,2.87,11.07,8.95,12.28,11,9.74,16.46-.37,35.76-3,40.73-2.37,4.48-5.87,10.87-11.18,11.07-3.02.12-6.56-1.78-7.14-4.31-.64-2.8,2.75-4.57,7.01-10.03,2.51-3.22,8.37-10.75,8.09-19.84-.06-2-.29-6.98-3.93-10.88-.65-.69-2.64-2.77-5.86-3.65-5.17-1.41-9.78,1.27-11.41,2.22-10.38,6.04-12.93,20.28-13.26,22.23-1.21,7.3.3,12.63-2.89,14.38-1.64.9-4.03.6-5.35-.54-1.3-1.12-1.2-2.75-1.69-10.31-.14-2.16-.21-3.24-.28-4.09-.48-5.43-.9-10.24-3.48-15.22-1.86-3.59-4.16-5.96-4.67-6.47-.28-.28-.98-1.06-1.61-1.49-5.08-3.42-13.73-2.46-18.27,2.35-2.66,2.82-3.21,6.2-3.65,9.01-1.11,6.96,1,12.9,2.55,17.1ZM389.14,419.92c-9.03,5.36-22.09,7.47-32.89,1.91-9.47-4.87-17.27-15.66-15.58-22.89,1.36-5.82,5.5-6.97,10.91-4.77,3.85,1.56,9.07,10.05,13.22,12.45.42.25,6.06,3.72,12.14,2.84,10.83-1.56,20.12-16.43,17.89-29.49-1.1-6.47-5.37-14.47-12.86-17.42-1.17-.46-5.17-2.04-9.85-1.11-3.13.62-4.19,1.89-8.46,3.57-.22.09-5.01,2.04-9.49,2.48-2.2.22-13.75,1.08-19.77-6.12-4.26-5.1-4.62-12.86-2.68-13.9,1.5-.8,3.6,2.83,9.65,5.55,0,0,5.03,2.26,11.1,2.47,9.59.33,12.93-5.39,19.82-6.74,11.53-2.25,27.45,8.97,33.29,23.73,7.03,17.75-1.33,38.46-16.43,47.42ZM191.03,533.09c-1.92,6-4.63,10.28-6.46,13.18,0,0-3.82,6.04-8.69,10.26-1.63,1.42-3.36,2.34-3.37,2.34-.07.04-.13.07-.17.09-3.4,1.77-6.46,1.93-9.16,2.05-5.29.23-9.58-.83-12.14-1.66-1.2-.39-4.49-1.53-9.79-4.96-3.29-2.13-9.44-6.17-15.55-13.4-2.82-3.34-8.05-9.64-11.29-19.25-.38-1.12-7.71-23.54.91-29.56,2.41-1.68,6.09-2.1,8.65-.66,4.21,2.38,3.25,8.47,4.81,18.02.4,2.48,3.15,18.14,14.48,28.72,2.93,2.74,7.49,6.88,14.36,7.44,6.25.51,10.96-2.22,12.22-2.98,8.78-5.26,10.77-15.31,11.42-18.47,1.94-9.46-.59-17.24-2.37-22.71-.38-1.18-2.06-6.3-5.83-12.14-3.75-5.8-6.76-10.47-10.97-10.59-2.59-.07-4.49,1.62-7,.36-.35-.17-1.92-1.02-2.48-2.76-.14-.45-.49-1.82.57-3.99,1.94-3.97,5.61-4.05,7.89-6.75,4.52-5.35,6.49-18.55-2.07-20.61-1.51-.36-3.44-.58-4.95.26-2.69,1.5-1.95,4.56-4.64,6.38-1.92,1.3-4.9,1.5-6.84.18-2.77-1.89-2.65-6.34-1.73-9.01,1.84-5.31,8.04-7.04,9.1-7.34,7.64-2.14,17.08,1.6,21.97,8.8,4.64,6.82,5.49,17.21,1.29,22.07-1.76,2.04-4.28,4.12-3.66,5.93.47,1.38,2.47,1.55,4.5,2.36,3.64,1.45,5.52,4.18,8.75,8.88,7.65,11.14,9.66,25.26,9.66,25.26.72,5.05,1.88,13.91-1.43,24.28ZM213.32,589.01c-1.43-.93-4.95-3.26-8.02-6.71-4.53-5.1-9.94-15.73-7.02-24.27.65-1.91,4.31-5.46,6.42-5.51,13.29-.35,22.58,35.01,41.11,20.7,19.37-14.97,9.68-48.43-4.33-64.18-9.72-10.93-19.55-7.88-26.16-13.78-8.45-7.56-7.18-22.68-9.89-22.45-.69.06-.73.96-2.33,2.58-2.81,2.85-6.26,3.72-7.18,3.92-.93.2-7.1,1.56-11.24-2.47-2.75-2.68-3.08-6.2-3.16-7.75-.59-11.12,8.79-16.85,19.09-14.77-.55-4.77-1.19-9.67-1.93-14.69-.83-5.58-1.73-10.99-2.7-16.21-9.02-2.09-14.97-6-18.22-8.54-10.83-8.48-14.82-19.89-13.72-23.31.66-2.07,2.01-2.74,2.01-2.74,1.13-.56,2.33-.26,2.7-.15,2.95.88,3.96,5.47,6.18,8.09,4.51,5.32,13.22,12.88,19.58,15.61,4.39,1.88,6.53.72,8.45,2.96,1.89,2.19,1.31,4.42,1.97,12.73,0,0,.39,4.89,1.31,10.92.48,3.18,1.34,7.81,2.94,13.42.26.25.7.62,1.33.79,4.21,1.19,9.12-8.34,12.22-7.17.65.24,1.17.95,1.52,2.29,1.3,4.98-9,7.75-7.06,11.68,1.89,3.83,17.21-.11,13.38,7.62-1.72,3.48-11.06-.28-14.75.95-.28,3.91,2.56,11.64,5.77,13.72,2.64,1.71,8.11,1.14,11.73,2.53,16.85,6.45,41.23,37.04,38.64,70.8-1.14,14.92-6.86,23.33-8.16,25.17-2.48,3.51-9.71,13.75-21.99,15.68-7.91,1.24-15.16-1.4-19.28-2.91-4.73-1.72-8.05-3.81-9.22-4.57ZM421.25,610.36c-19.65,12.96-37.97,18.82-55.16,24.19-6.94,2.17-16.02,4.75-26.86,7.12-1.9-5.23-3.04-6.92-3.74-6.79-1.32.25-1.66,7.13-1.65,7.13,0,0-20.05,3.82-40.54,3.48,0,0-19.61-.33-42.67-5.83-4.67-1.11-10.33-2.61-10.33-2.61-4.86-1.28-8.94-2.44-11.93-3.31,1.9-2.37,4.74-5.76,8.42-9.63,7.89-8.3,13.59-14.28,21.25-18.13,12.27-6.16,24.62-4.35,29.82-3.59,3.68.54,23.16,3.4,35.86,18.36,4.36,5.14,5.83,9.24,9.41,9.33,5.59.14,8.13-10.3,14.45-19.76,11.87-17.77,31.46-24.04,35.58-25.35,27.31-8.73,52.91,6.14,58.4,9.5-4.25,3.91-11.11,9.8-20.31,15.87ZM510.61,439.59c-.57,1.96-2.1,7.19-5.82,8.19-4.6,1.23-9.59-4.78-10.01-5.29-4.1-5.05-4.3-10.99-4.56-13.9-1.57-17.29-15.31-36.09-29.75-39.68-1.68-.42-8.69-2.16-12.58,1.44-5.56,5.13-3.32,19.77,3.95,29.13,7.82,10.08,20.15,12.36,20.85,19.89.09.98.39,4.13-1.57,6.06-1.45,1.43-3.46,1.53-4.09,1.57-7.43.39-10.61-11.49-19.8-13.43-5.74-1.22-12.38,1.74-15.61,6.33-4.42,6.3-1.62,14.52-.26,18.5,3.65,10.71,11.76,17.12,17.66,21.67,12.53,9.66,20.02,9.51,22.8,17.64.12.35,2.57,7.86-1.31,12.03-3.47,3.73-9.97,2.58-12.27,2.18-16.37-2.89-26.29-22.88-29.21-28.77-8.89-17.91-17.03-49.27-4.03-58.82,4.34-3.18,9.83-3.06,13.23-2.65-8.39-17.27-9.07-34.75-1.62-44.71,1.66-2.23,6.02-8.06,13.58-10.04,0,0,4.97-1.3,10.84,0,20.58,4.56,56.08,50.42,49.59,72.66Z"/>
    <path d="M194.64,462.14c-3.89.9-9.52,8.31-3.56,9.83,9.95,2.55,18.15-13.2,3.56-9.83Z"/>
    <path d="M388.7,495.9c-2.84,2.65-3.86,5.68-4.44,7.48-2.92,9.07.75,17.61,2.09,20.62,1.61,3.61,7.36,16.5,16.1,16.18,5.33-.19,8.96-5.19,9.75-6.26,4.85-6.66,3.14-14.84,2.09-19.84-.47-2.25-4.69-21.39-15.17-22.36-5.3-.49-10.07,3.86-10.41,4.18Z"/>
    <path d="M561.37,354.06c-.58-.25-5.54-2.43-9.08-.15-2.45,1.57-2.68,4.29-3.47,4.15-1.02-.19-1-4.72-.94-10.77.03-3.5.07-7.13.41-12.26.18-2.7.29-3.44.27-5.22-.03-3.01-.1-8.9-2.19-9.51-1.11-.32-2.74.86-3.42,2.1-.37.66-.43,1.28-.45,1.49-1.37,15.28-1,26.44-1,26.44.44,13.07-1.06,17.87,2.11,19.71,1.83,1.06,4.49.72,6.23-.08,4.29-1.97,4.52-7.4,7.13-7.5,1.61-.07,2.89,1.95,3.64,3.11,2.85,4.49,2.06,9.62,1.46,13.22-.76,4.48-1.85,10.66-6.57,12.95-1.18.57-4.41.77-4.41.77-9.39-.7-5.7,10.43.46,11.95,18.09,2.95,23.24-29.96,16.51-43.48-1.42-2.93-3.66-5.6-6.67-6.92Z"/>
  </g>
</svg>